# xmcd
#
# Track frame offsets:
#	150
#	16026
#	25948
#	42121
#	53125
#	68388
#	80663
#	95621
#	111482
#	124508
#	138971
#	154373
#	170208
#	182491
#	197336
#	212923
#	232697
#	248003
#	261944
#	270935
#	289979
#	300085
#	315604
#	327127
#
# Disc length: 4565 seconds
#
# Revision: 0
# Processed by: cddbd v1.5.2PL0 Copyright (c) Steve Scherf et al.
# Submitted via: EasyCDDAExtractor 2011.3.0.0
#
DISCID=3d11d318
DTITLE=Nedvědi - 44 slavných písni a ještě něco navíc CD 2 - 44 slavných písni
DTITLE=a ještě něco navíc CD 2
DYEAR=2010
DGENRE=Country
TTITLE0=Jablůňka
TTITLE1=Madlenka
TTITLE2=Jen trpělivost,lásko má
TTITLE3=Do kostela
TTITLE4=Zpívám ti míň
TTITLE5=Je tak pěkně
TTITLE6=I manekýnky stárnou
TTITLE7=Orchidej
TTITLE8=Jsem tvůj déšť
TTITLE9=Andělé
TTITLE10=Jak se dá tu žít
TTITLE11=Housličky
TTITLE12=Ještě nevstávej
TTITLE13=Banská Bystrica
TTITLE14=Štěstí a smůla
TTITLE15=Můj zvon
TTITLE16=Jehličky
TTITLE17=Jsi mým osudem
TTITLE18=Louže
TTITLE19=Můj Ota Pavel
TTITLE20=Loučím se s tmou
TTITLE21=Dobrou noc
TTITLE22=Miluju
TTITLE23=Zpověď
EXTD=
EXTT0=
EXTT1=
EXTT2=
EXTT3=
EXTT4=
EXTT5=
EXTT6=
EXTT7=
EXTT8=
EXTT9=
EXTT10=
EXTT11=
EXTT12=
EXTT13=
EXTT14=
EXTT15=
EXTT16=
EXTT17=
EXTT18=
EXTT19=
EXTT20=
EXTT21=
EXTT22=
EXTT23=
PLAYORDER=
